<?xml version="1.0" encoding="UTF-8" standalone="no"?>
<svg
   width="223"
   viewBox="0 0 223 107.035"
   version="1.1"
   id="svg40"
   sodipodi:docname="path11i.svg"
   inkscape:version="1.4.3 (0d15f75042, 2025-12-25)"
   height="107.035"
   xmlns:inkscape="http://www.inkscape.org/namespaces/inkscape"
   xmlns:sodipodi="http://sodipodi.sourceforge.net/DTD/sodipodi-0.dtd"
   xmlns="http://www.w3.org/2000/svg"
   xmlns:svg="http://www.w3.org/2000/svg">
  <sodipodi:namedview
     id="namedview40"
     pagecolor="#ffffff"
     bordercolor="#000000"
     borderopacity="0.25"
     inkscape:showpageshadow="2"
     inkscape:pageopacity="0.0"
     inkscape:pagecheckerboard="0"
     inkscape:deskcolor="#d1d1d1"
     inkscape:zoom="3.9624413"
     inkscape:cx="92.619668"
     inkscape:cy="57.16173"
     inkscape:window-width="1342"
     inkscape:window-height="692"
     inkscape:window-x="0"
     inkscape:window-y="0"
     inkscape:window-maximized="0"
     inkscape:current-layer="svg40">
    <inkscape:page
       x="0"
       y="0"
       width="223"
       height="107.035"
       id="page2"
       margin="0"
       bleed="0" />
  </sodipodi:namedview>
  <defs
     id="defs14" />
  <!-- Cloud body — built from overlapping circles, dark red -->
  <!-- Big P overlaid in front of cloud -->
  <!-- Wordmark -->
  <!-- Tagline -->
  <!-- Divider -->
  <!-- Feature pills row -->
  <!-- Divider -->
  <!-- Fine print -->
  <!-- Bottom bracket row -->
  <path
     id="path11"
     style="display:inline;fill:#7b1a12;fill-opacity:1;stroke-width:0.995381"
     d="M 90,-2.9009995e-4 A 52,52 0 0 0 45.473,25.14471 42,42 0 0 0 42,24.99971 a 42,42 0 0 0 -42,42 42,42 0 0 0 29.305,40.035 h 30.539 c 0.951,-2.9 2.133,-5.708 3.545,-8.424 1.792,-3.328 3.519,-6.527 5.183,-9.599 0.64,-1.152 1.857,-3.264 3.649,-6.336 1.92,-3.2 4.16,-6.913 6.72,-11.137 2.56,-4.352 5.247,-8.768 8.063,-13.248 2.944,-4.608 5.696,-8.895 8.256,-12.863 2.56,-3.968 4.737,-7.168 6.529,-9.6 1.92,-2.432 3.135,-3.648 3.647,-3.648 0.64,0 1.664,0.255 3.072,0.767 1.536,0.384 3.008,0.897 4.416,1.537 1.408,0.512 2.305,1.024 2.689,1.536 -5.248,5.888 -10.625,11.839 -16.129,17.855 -5.376,6.016 -10.368,12.225 -14.976,18.625 -3.968,5.888 -7.744,11.905 -11.328,18.049 -3.121,5.548 -6.345,11.043 -9.674,16.486 h 131.771 a 36,36 0 0 0 27.723,-35.035 36,36 0 0 0 -36,-36 36,36 0 0 0 -3.039,0.129 44,44 0 0 0 -28.981,-19.399 c 2.713,1.476 4.95,3.426 6.713,5.85 2.176,2.688 3.264,6.209 3.264,10.561 0,4.352 -1.601,8.32 -4.801,11.904 -3.072,3.456 -6.975,6.463 -11.711,9.023 -4.736,2.56 -9.536,4.672 -14.4,6.336 -4.864,1.664 -9.025,2.944 -12.481,3.84 -4.736,1.152 -9.663,2.432 -14.783,3.84 -5.12,1.408 -10.049,2.24 -14.785,2.496 H 91.42 90.461 c -0.384,-0.128 -0.576,-0.384 -0.576,-0.768 0,-0.896 0.511,-1.601 1.535,-2.113 1.152,-0.64 2.049,-1.022 2.689,-1.15 l 4.032,-0.576 c 3.968,-0.512 7.999,-1.41 12.095,-2.69 2.56,-0.64 5.76,-1.599 9.6,-2.879 3.968,-1.28 8.065,-2.88 12.289,-4.8 4.352,-1.92 8.384,-4.096 12.096,-6.528 3.84,-2.432 6.911,-5.057 9.215,-7.873 2.432,-2.944 3.648,-6.015 3.648,-9.215 0,-3.328 -1.343,-5.824 -4.031,-7.488 -2.688,-1.664 -5.824,-2.752 -9.408,-3.264 -3.456,-0.512 -6.4,-0.767 -8.832,-0.767 -8.064,0 -16.704,1.151 -25.92,3.455 -9.088,2.304 -17.536,4.608 -25.344,6.912 -0.896,0.384 -1.92,0.576 -3.072,0.576 -1.408,0 -2.56,-0.448 -3.456,-1.344 -0.768,-1.024 -1.152,-2.24 -1.152,-3.648 0,-3.2 1.343,-5.375 4.031,-6.527 1.024,-0.384 1.985,-0.705 2.881,-0.961 1.024,-0.256 1.983,-0.449 2.879,-0.577 7.552,-1.536 15.233,-2.942 23.041,-4.222 4.962,-0.895 9.923,-1.506 14.885,-1.832 A 52,52 0 0 0 90,-2.9009995e-4 Z"
     inkscape:export-filename="path11.svg"
     inkscape:export-xdpi="96"
     inkscape:export-ydpi="96" />
  <path
     id="path5"
     style="display:inline;fill:#a52a20;fill-opacity:1;stroke-width:0.995381"
     d="M 87,6.9997099 A 48,48 0 0 0 44.711,32.29271 38,38 0 0 0 40,31.99971 a 38,38 0 0 0 -38,38 38,38 0 0 0 29.492,37.035 h 28.352 c 0.951,-2.9 2.133,-5.708 3.545,-8.424 1.792,-3.328 3.519,-6.527 5.183,-9.599 0.64,-1.152 1.857,-3.264 3.649,-6.336 1.92,-3.2 4.16,-6.913 6.72,-11.137 2.56,-4.352 5.247,-8.768 8.063,-13.248 2.944,-4.608 5.696,-8.895 8.256,-12.863 2.56,-3.968 4.737,-7.168 6.529,-9.6 1.92,-2.432 3.135,-3.648 3.647,-3.648 0.64,0 1.664,0.255 3.072,0.767 1.536,0.384 3.008,0.897 4.416,1.537 1.408,0.512 2.305,1.024 2.689,1.536 -5.248,5.888 -10.625,11.839 -16.129,17.855 -5.376,6.016 -10.368,12.225 -14.976,18.625 -3.968,5.888 -7.744,11.905 -11.328,18.049 -3.121,5.548 -6.345,11.043 -9.674,16.486 h 126.416 a 33,33 0 0 0 25.078,-32.035 33,33 0 0 0 -33,-33 33,33 0 0 0 -4.596,0.322 41,41 0 0 0 -12.875,-13.578 c 0.285,1.356 0.428,2.823 0.428,4.397 0,4.352 -1.601,8.32 -4.801,11.904 -3.072,3.456 -6.975,6.463 -11.711,9.023 -4.736,2.56 -9.536,4.672 -14.4,6.336 -4.864,1.664 -9.025,2.944 -12.481,3.84 -4.736,1.152 -9.663,2.432 -14.783,3.84 -5.12,1.408 -10.049,2.24 -14.785,2.496 H 91.42 90.461 c -0.384,-0.128 -0.576,-0.384 -0.576,-0.768 0,-0.896 0.511,-1.601 1.535,-2.113 1.152,-0.64 2.049,-1.022 2.689,-1.15 l 4.032,-0.576 c 3.968,-0.512 7.999,-1.41 12.095,-2.69 2.56,-0.64 5.76,-1.599 9.6,-2.879 3.968,-1.28 8.065,-2.88 12.289,-4.8 4.352,-1.92 8.384,-4.096 12.096,-6.528 3.84,-2.432 6.911,-5.057 9.215,-7.873 2.432,-2.944 3.648,-6.015 3.648,-9.215 0,-3.328 -1.343,-5.824 -4.031,-7.488 -1.173,-0.726 -2.431,-1.343 -3.774,-1.85 a 41,41 0 0 0 -7.279,-0.65 41,41 0 0 0 -16.99,3.686 48,48 0 0 0 -3.67,-4.223 c -4.026,0.573 -8.174,1.393 -12.447,2.461 -9.088,2.304 -17.536,4.608 -25.344,6.912 -0.896,0.384 -1.92,0.576 -3.072,0.576 -1.408,0 -2.56,-0.448 -3.456,-1.344 -0.768,-1.024 -1.152,-2.24 -1.152,-3.648 0,-3.2 1.343,-5.375 4.031,-6.527 1.024,-0.384 1.985,-0.705 2.881,-0.961 1.024,-0.256 1.983,-0.449 2.879,-0.577 7.552,-1.536 15.233,-2.942 23.041,-4.222 0.904,-0.163 1.807,-0.317 2.711,-0.461 A 48,48 0 0 0 87,6.9997099 Z" />
</svg>
