<svg xmlns="http://www.w3.org/2000/svg" width="541" height="370" viewBox="0 0 541 370" fill="none">
  <line x1="23" y1="0" x2="189" y2="370" stroke="#a52a20" stroke-width="1.2" stroke-linecap="round" opacity="0.18"/>
  <line x1="67" y1="0" x2="341" y2="370" stroke="#7b1a12" stroke-width="0.8" stroke-linecap="round" opacity="0.14"/>
  <line x1="112" y1="0" x2="0" y2="214" stroke="#a52a20" stroke-width="1.5" stroke-linecap="round" opacity="0.12"/>
  <line x1="198" y1="0" x2="89" y2="370" stroke="#a52a20" stroke-width="0.6" stroke-linecap="round" opacity="0.20"/>
  <line x1="254" y1="0" x2="541" y2="178" stroke="#7b1a12" stroke-width="1.0" stroke-linecap="round" opacity="0.16"/>
  <line x1="301" y1="0" x2="148" y2="370" stroke="#a52a20" stroke-width="1.3" stroke-linecap="round" opacity="0.13"/>
  <line x1="378" y1="0" x2="210" y2="370" stroke="#7b1a12" stroke-width="0.7" stroke-linecap="round" opacity="0.18"/>
  <line x1="433" y1="0" x2="541" y2="88" stroke="#a52a20" stroke-width="1.1" stroke-linecap="round" opacity="0.15"/>
  <line x1="489" y1="0" x2="321" y2="370" stroke="#7b1a12" stroke-width="0.9" stroke-linecap="round" opacity="0.12"/>
  <line x1="541" y1="34" x2="398" y2="370" stroke="#a52a20" stroke-width="1.4" stroke-linecap="round" opacity="0.17"/>
  <line x1="0" y1="42" x2="420" y2="311" stroke="#7b1a12" stroke-width="0.8" stroke-linecap="round" opacity="0.14"/>
  <line x1="0" y1="97" x2="541" y2="240" stroke="#a52a20" stroke-width="1.2" stroke-linecap="round" opacity="0.10"/>
  <line x1="0" y1="155" x2="541" y2="55" stroke="#7b1a12" stroke-width="0.6" stroke-linecap="round" opacity="0.16"/>
  <line x1="0" y1="201" x2="329" y2="370" stroke="#a52a20" stroke-width="1.0" stroke-linecap="round" opacity="0.13"/>
  <line x1="0" y1="263" x2="541" y2="132" stroke="#7b1a12" stroke-width="1.3" stroke-linecap="round" opacity="0.11"/>
  <line x1="0" y1="318" x2="541" y2="190" stroke="#a52a20" stroke-width="0.7" stroke-linecap="round" opacity="0.18"/>
  <line x1="541" y1="144" x2="112" y2="370" stroke="#7b1a12" stroke-width="1.1" stroke-linecap="round" opacity="0.15"/>
  <line x1="541" y1="198" x2="0" y2="88" stroke="#a52a20" stroke-width="0.9" stroke-linecap="round" opacity="0.12"/>
  <line x1="541" y1="255" x2="267" y2="370" stroke="#7b1a12" stroke-width="1.4" stroke-linecap="round" opacity="0.14"/>
  <line x1="541" y1="310" x2="43" y2="0" stroke="#a52a20" stroke-width="0.8" stroke-linecap="round" opacity="0.17"/>
  <line x1="541" y1="349" x2="155" y2="0" stroke="#7b1a12" stroke-width="1.2" stroke-linecap="round" opacity="0.13"/>
  <line x1="78" y1="370" x2="466" y2="0" stroke="#a52a20" stroke-width="0.6" stroke-linecap="round" opacity="0.19"/>
  <line x1="144" y1="370" x2="541" y2="77" stroke="#7b1a12" stroke-width="1.0" stroke-linecap="round" opacity="0.14"/>
  <line x1="233" y1="370" x2="0" y2="144" stroke="#a52a20" stroke-width="1.3" stroke-linecap="round" opacity="0.11"/>
  <line x1="299" y1="370" x2="541" y2="23" stroke="#7b1a12" stroke-width="0.7" stroke-linecap="round" opacity="0.16"/>
  <line x1="355" y1="370" x2="0" y2="55" stroke="#a52a20" stroke-width="1.1" stroke-linecap="round" opacity="0.12"/>
  <line x1="422" y1="370" x2="88" y2="0" stroke="#7b1a12" stroke-width="0.9" stroke-linecap="round" opacity="0.18"/>
  <line x1="477" y1="370" x2="320" y2="0" stroke="#a52a20" stroke-width="1.4" stroke-linecap="round" opacity="0.13"/>
  <line x1="144" y1="0" x2="0" y2="311" stroke="#7b1a12" stroke-width="0.8" stroke-linecap="round" opacity="0.15"/>
  <line x1="511" y1="0" x2="0" y2="178" stroke="#a52a20" stroke-width="1.1" stroke-linecap="round" opacity="0.12"/>
  <line x1="0" y1="370" x2="541" y2="0" stroke="#7b1a12" stroke-width="0.6" stroke-linecap="round" opacity="0.09"/>
  <line x1="0" y1="0" x2="541" y2="370" stroke="#a52a20" stroke-width="0.6" stroke-linecap="round" opacity="0.09"/>
  <line x1="166" y1="0" x2="0" y2="78" stroke="#7b1a12" stroke-width="1.0" stroke-linecap="round" opacity="0.13"/>
  <line x1="388" y1="370" x2="541" y2="266" stroke="#a52a20" stroke-width="0.8" stroke-linecap="round" opacity="0.14"/>
  <line x1="0" y1="333" x2="210" y2="0" stroke="#7b1a12" stroke-width="1.2" stroke-linecap="round" opacity="0.11"/>
  <line x1="541" y1="370" x2="0" y2="130" stroke="#a52a20" stroke-width="0.7" stroke-linecap="round" opacity="0.10"/>
  <line x1="541" y1="68" x2="223" y2="370" stroke="#7b1a12" stroke-width="1.0" stroke-linecap="round" opacity="0.15"/>
  <line x1="33" y1="370" x2="508" y2="0" stroke="#a52a20" stroke-width="0.9" stroke-linecap="round" opacity="0.13"/>
</svg>
